<?xml version="1.0" encoding="utf-8"?>
<!-- Generator: Adobe Illustrator 27.0.0, SVG Export Plug-In . SVG Version: 6.00 Build 0)  -->
<svg version="1.1" id="Layer_1" xmlns="http://www.w3.org/2000/svg" xmlns:xlink="http://www.w3.org/1999/xlink" x="0px" y="0px"
	 viewBox="0 0 684.72 145.39" style="enable-background:new 0 0 684.72 145.39;" xml:space="preserve">
<style type="text/css">
	.st0{fill:#FFFFFF;}
</style>
<g>
	<path class="st0" d="M42.48,52.48l0.59-15.73c0.29-5.73,0.44-11.17,0.44-15.73c-10.58,0.44-18.23,2.21-23.52,4.26
		c-8.53,3.38-11.32,8.09-11.32,11.91C2.94,36.6,0,30.72,0,24.4c0-3.97,1.18-8.08,3.67-10.88c5-5.73,12.05-7.5,22.34-7.5
		c6.32,0,13.97,0.74,23.23,1.47c11.03,0.88,28.67,3.67,38.22,3.67c1.03,0,2.06,0,2.94-0.15c0.44,0.74,0.74,1.91,0.74,2.94
		c0,3.23-2.35,7.2-7.79,7.79c-2.06,0.15-4.41,0.29-6.76,0.29c-4.85,0-10.14-0.29-15.44-0.73c0.15,4.12,0.29,9.85,0.29,15.73
		c0,5.15-0.15,10.58-0.15,15.44h10c2.94,0,5.44,0,7.35-0.15c0.59,1.32,1.03,2.79,1.03,4.26c0,1.91-0.59,3.67-2.21,5.29
		c-1.76,1.76-4.56,2.94-8.97,3.23l-7.5,0.44c-0.15,9.85-0.15,16.46-0.15,22.34c0.15,18.23,0.44,26.61,0.88,32.19
		c-0.44,0.15-1.18,0.15-2.06,0.15c-2.94,0-7.79-0.74-11.76-3.67c-2.94-2.21-5.29-5.44-5.88-10.58c-0.44-3.82-0.59-8.23-0.59-13.08
		c0.15-12.64,0.59-21.32,0.59-26.75c-8.53,0.29-15.29,0.29-15.29,0.29s-1.62-3.53-1.62-6.76c0-1.76,0.44-3.38,1.91-4.56
		C29.11,53.51,35.13,52.77,42.48,52.48z"/>
	<path class="st0" d="M88.05,40.57c0-12.35,0.59-23.96,2.06-30.14c1.47-6.03,5.15-8.53,9.41-8.53c2.35,0,4.85,0.74,7.2,2.06
		c5.59,3.23,10.58,9.7,11.76,17.64c0.44,2.79,0.59,5.44,0.59,8.23c0,6.62-1.03,13.38-2.5,19.7c-2.35,9.7-5.59,18.38-7.79,24.26
		c0,6.62,0,12.5,0.59,17.49c0.59,5.88,1.91,10.29,4.7,11.91c0.59,0.29,1.18,0.44,1.76,0.44c2.5,0,5.15-2.65,7.2-5.88
		c1.91-3.09,3.38-6.91,3.38-9.11c0.15,0,0.44-0.15,0.73-0.15c2.21,0,5.15,2.65,5.15,7.64c0,0.59,0,1.18-0.15,1.76
		c-0.74,6.03-8.67,14.26-13.38,16.02c-2.5,1.03-5.15,1.47-7.64,1.47c-5.44,0-10.44-2.35-14.41-7.79
		c-4.26-6.03-5.88-18.67-7.35-35.28C88.49,63.51,88.05,51.75,88.05,40.57z M107.75,40.43c0.29-2.65,0.73-6.03,0.73-8.53
		c0-4.41-0.73-7.79-3.23-7.79c-1.18,0-1.62,5.29-1.62,14.99c0,8.53,0.88,17.64,0.88,17.64S106.57,48.8,107.75,40.43z"/>
	<path class="st0" d="M144.35,62.48c0,9.85-0.88,23.08-0.88,29.69c0,3.38,1.62,5,3.23,5c0.59,0,1.18-0.15,1.62-0.59
		c2.5-1.91,5.59-10,8.38-19.4c3.82-12.64,7.2-27.49,7.79-32.34c0.15-1.18,1.03-1.62,2.5-1.62c2.35,0,6.03,1.47,9.11,4.12
		c3.68,3.09,6.76,7.5,6.76,12.94c0,10.73-1.91,21.46-1.91,33.08c0,2.06,0.29,10.14,3.68,10.14c4.12,0,10.29-9.11,11.47-14.85h0.59
		c2.06,0,5.44,1.76,5.44,6.91c0,4.85-5.88,14.99-12.35,17.79c-2.21,0.88-4.7,1.47-7.2,1.47c-6.47,0-13.08-3.38-15.88-11.61
		c-1.32-3.82-1.91-8.67-1.91-13.23c0-6.62,1.03-12.94,1.62-16.61c0,0.15-0.15,0.29-0.15,0.59c-1.03,5.15-3.38,16.17-6.91,25.14
		c-2.35,5.88-5.29,11.02-8.82,12.94c-1.18,0.74-2.79,1.03-4.41,1.03c-3.23,0-7.06-1.32-10.44-4.12c-4.41-3.38-8.08-8.97-9.41-16.32
		c-0.73-3.67-0.88-7.64-0.88-12.05c0-3.23,0.15-6.62,0.29-10c0.44-9.41,1.47-18.82,1.47-24.84c0-1.32,0-2.35-0.15-3.23
		c0.59-0.15,1.32-0.15,2.06-0.15c5.59,0,13.38,3.38,14.7,10.29C144.21,54.83,144.35,58.36,144.35,62.48z"/>
	<path class="st0" d="M197.27,100.7c-0.88-2.5-1.18-7.64-1.18-14.7c0-2.79,0-5.73,0.15-8.97c0.15-8.23,0.44-17.64,0.88-27.2
		c-5-0.15-8.82-0.29-8.82-0.29s-0.59-1.47-0.88-3.23c-0.15-0.73-0.29-1.32-0.29-2.06c0-1.47,0.59-2.79,2.06-3.23
		c1.76-0.59,4.7-0.88,8.23-1.03c0.15-3.53,0.15-6.47,0.15-9.11c0-3.23-0.15-5.88-0.15-8.23c0-3.38,0.29-6.17,1.76-8.82
		c0.73-1.32,2.35-2.06,3.97-2.06c1.76,0,3.68,0.73,5.44,1.91c3.09,2.06,5.59,6.03,7.35,12.2c0.44,1.32,0.59,4.12,0.59,7.79
		c0,1.91,0,3.97-0.15,6.17c5.73,0,10.88,0,13.23-0.44c0.59,1.32,1.03,2.65,1.03,3.97c0,1.03-0.29,1.91-0.88,2.79
		c-1.03,1.47-3.09,2.65-6.47,3.09c-2.06,0.29-4.7,0.59-7.64,0.59c0,2.35-0.74,5.15-1.03,7.64c-1.03,9.11-2.06,19.11-2.06,28.37
		c0,9.41,1.03,15.73,3.23,17.35c1.03,0.73,2.06,1.03,3.23,1.03c2.65,0,5.59-1.76,7.94-4.7c2.5-3.09,4.41-7.2,4.85-11.32
		c2.35,0,5.88,2.5,5.88,7.35c0,1.32-0.29,2.94-0.88,4.7c-3.82,9.85-11.91,14.85-20.87,14.85
		C204.92,115.1,199.92,108.49,197.27,100.7z"/>
	<path class="st0" d="M232.11,100.7c-0.88-2.5-1.18-7.64-1.18-14.7c0-2.79,0-5.73,0.15-8.97c0.15-8.23,0.44-17.64,0.88-27.2
		c-5-0.15-8.82-0.29-8.82-0.29s-0.59-1.47-0.88-3.23c-0.15-0.73-0.29-1.32-0.29-2.06c0-1.47,0.59-2.79,2.06-3.23
		c1.76-0.59,4.7-0.88,8.23-1.03c0.15-3.53,0.15-6.47,0.15-9.11c0-3.23-0.15-5.88-0.15-8.23c0-3.38,0.29-6.17,1.76-8.82
		c0.73-1.32,2.35-2.06,3.97-2.06c1.76,0,3.68,0.73,5.44,1.91c3.09,2.06,5.59,6.03,7.35,12.2c0.44,1.32,0.59,4.12,0.59,7.79
		c0,1.91,0,3.97-0.15,6.17c5.73,0,10.88,0,13.23-0.44c0.59,1.32,1.03,2.65,1.03,3.97c0,1.03-0.29,1.91-0.88,2.79
		c-1.03,1.47-3.09,2.65-6.47,3.09c-2.06,0.29-4.7,0.59-7.64,0.59c0,2.35-0.74,5.15-1.03,7.64c-1.03,9.11-2.06,19.11-2.06,28.37
		c0,9.41,1.03,15.73,3.23,17.35c1.03,0.73,2.06,1.03,3.23,1.03c2.65,0,5.59-1.76,7.94-4.7c2.5-3.09,4.41-7.2,4.85-11.32
		c2.35,0,5.88,2.5,5.88,7.35c0,1.32-0.29,2.94-0.88,4.7c-3.82,9.85-11.91,14.85-20.87,14.85
		C239.76,115.1,234.76,108.49,232.11,100.7z"/>
	<path class="st0" d="M282.09,78.06c0.15,8.08,2.06,15.88,6.17,20.43c2.94,3.23,6.47,4.7,10,4.7c3.97,0,8.09-1.76,11.61-4.85
		c4.7-3.97,8.23-10.14,9.11-16.76c0.29,0,0.59-0.15,0.88-0.15c3.09,0,5.59,3.38,5.59,7.64c0,10.14-10.14,20.43-20.43,24.11
		c-2.94,1.03-6.76,1.76-10.73,1.76c-8.38,0-17.93-2.94-24.55-11.32c-5.15-6.47-7.64-16.32-7.64-26.31c0-10.14,2.5-20.58,7.64-28.08
		c5.44-7.94,13.08-11.03,20.43-11.03c8.82,0,17.2,4.56,19.99,10.58c1.18,2.65,1.76,5.15,1.76,7.35c0,6.76-4.56,11.91-8.09,14.7
		C297.67,75.85,289.59,77.76,282.09,78.06z M285.47,56.16c-1.32,3.53-2.35,7.79-2.94,12.5c2.79-0.73,5.29-1.76,8.53-3.82
		c3.53-2.35,5.88-6.47,5.88-11.17c0-3.23-1.76-5.73-4.12-5.73C289.74,48.36,287.24,51.6,285.47,56.16z"/>
	<path class="st0" d="M346.77,40.72c5,0,11.61,5.29,11.61,11.47c0,4.56-5.44,10.88-5.44,10.88s2.06,6.03,8.08,7.2
		c0.44,0.15,0.74,0.15,1.18,0.15c4.41,0,8.53-4.26,9.26-8.53c3.09,0,5.73,2.94,5.73,7.35c0,8.09-8.08,12.64-16.17,12.64
		c-6.91,0-13.38-3.09-17.49-7.94c-3.23,1.62-6.76,7.5-8.23,16.32c-0.29,1.47-0.29,2.79-0.29,4.26c0,6.03,0.15,12.05,1.18,18.38
		c-1.32,0.88-3.09,1.32-4.7,1.32c-4.56,0-9.41-3.23-11.47-8.23c-1.91-4.7-2.35-15.14-2.35-26.17c0-15.29,0.44-23.81,0.44-29.55
		c0-4.12-0.15-6.76-0.59-7.2c0.73-0.73,2.21-1.18,3.97-1.18c1.62,0,3.53,0.44,5.44,1.32c3.09,1.62,6.03,4.56,7.5,9.85
		c0.73,2.5,1.03,6.76,1.18,11.76c0.88-1.76,1.62-3.23,2.5-4.56c-0.15-1.32-0.29-2.79-0.29-4.12c0-6.62,2.35-11.91,5.44-14.26
		C344.27,41.16,345.45,40.72,346.77,40.72z"/>
	<path class="st0" d="M396.31,107.46c-4.12,0-8.53-1.32-12.64-4.41c-10.88-8.09-17.35-24.84-17.35-44.84
		c0-15.29,3.97-31.16,12.5-42.92C385.28,6.32,395.72,0,407.63,0c9.7,0,18.82,4.12,23.96,10.29c3.09,3.68,5.44,9.26,5.44,14.99
		c0,7.94-5.73,16.61-14.55,16.61c-4.56,0-8.53-2.21-10.14-5.15c2.79-3.23,4.7-9.11,4.7-14.26c0-5.29-1.76-10.88-8.97-10.88
		c-10.14,0-18.23,15.88-19.85,42.63c-0.15,2.5-0.29,5-0.29,7.35c0,21.46,6.47,32.05,14.26,32.05c8.67,0,18.23-17.05,18.38-34.84
		c0-3.23,4.26-7.2,8.53-9.41c1.91-1.03,3.82-1.62,5.44-1.62c2.06,0,3.53,1.03,3.82,3.23c0.44,3.53,0.59,9.7,0.59,16.46
		c0,15.73-0.59,24.84-1.03,29.55c7.5-4.56,13.67-8.97,14.85-11.17c2.94,1.18,4.56,3.97,4.56,7.06c0,1.91-0.59,4.12-2.21,5.88
		c-3.82,4.41-10.73,8.82-18.38,12.79c-1.18,11.91-3.23,21.76-12.94,29.11c-4.41,3.23-10.14,4.7-16.02,4.7
		c-2.79,0-5.44-0.29-8.09-0.88c-8.38-2.06-15.29-7.2-15.29-13.97c0-6.62,7.06-10.44,17.2-15.14c4.85-2.21,12.05-5.14,17.64-7.79
		c0.59-4.85,1.03-10.88,1.03-18.96C416.74,98.79,407.04,107.46,396.31,107.46z M406.31,134.65c1.62,0,3.53-0.59,5.29-1.76
		c3.68-2.65,5.15-7.2,6.03-12.2c-3.09,1.47-8.53,3.97-11.47,5.59c-3.09,1.76-5,3.23-5,4.7
		C401.16,133.04,403.37,134.65,406.31,134.65z"/>
	<path class="st0" d="M482.01,40.72c5,0,11.61,5.29,11.61,11.47c0,4.56-5.44,10.88-5.44,10.88s2.06,6.03,8.09,7.2
		c0.44,0.15,0.73,0.15,1.18,0.15c4.41,0,8.53-4.26,9.26-8.53c3.09,0,5.73,2.94,5.73,7.35c0,8.09-8.08,12.64-16.17,12.64
		c-6.91,0-13.38-3.09-17.49-7.94c-3.23,1.62-6.76,7.5-8.23,16.32c-0.29,1.47-0.29,2.79-0.29,4.26c0,6.03,0.15,12.05,1.18,18.38
		c-1.32,0.88-3.09,1.32-4.7,1.32c-4.56,0-9.41-3.23-11.47-8.23c-1.91-4.7-2.35-15.14-2.35-26.17c0-15.29,0.44-23.81,0.44-29.55
		c0-4.12-0.15-6.76-0.59-7.2c0.74-0.73,2.21-1.18,3.97-1.18c1.62,0,3.53,0.44,5.44,1.32c3.09,1.62,6.03,4.56,7.5,9.85
		c0.73,2.5,1.03,6.76,1.18,11.76c0.88-1.76,1.62-3.23,2.5-4.56c-0.15-1.32-0.29-2.79-0.29-4.12c0-6.62,2.35-11.91,5.44-14.26
		C479.51,41.16,480.68,40.72,482.01,40.72z"/>
	<path class="st0" d="M562.42,103.49c2.35,0,4.56-2.21,6.62-5c2.5-3.38,4.26-7.64,4.7-9.85c1.62,0,5.44,1.62,5.44,6.76
		c0,1.18-0.15,2.5-0.59,3.97c-2.06,7.35-9.7,15.44-18.52,15.44c-6.47,0-14.11-4.12-16.76-11.17c-1.76-4.56-2.06-8.38-2.06-11.47
		c0-2.21,0.15-4.12,0.15-5.44c-1.91,4.26-5,23.52-15.88,27.34c-0.88,0.29-1.91,0.44-2.94,0.44c-7.2,0-17.93-7.2-21.02-22.34
		c-0.59-3.23-1.03-7.06-1.03-11.03c0-15.58,5.29-34.4,18.23-39.1c2.79-1.03,5.73-1.47,8.53-1.47c6.32,0,12.35,2.65,16.46,7.79
		l0.29-2.35c0-1.47,1.18-2.06,2.79-2.06c1.91,0,4.85,0.88,7.35,2.35c3.67,2.06,6.91,5.44,6.91,8.97c0,3.53-1.32,14.55-2.06,25.14
		c-0.29,3.82-0.44,7.5-0.44,10.88c0,6.17,0.59,10.88,2.21,11.76C561.39,103.34,561.83,103.49,562.42,103.49z M535.07,82.76
		c2.79-7.5,5.29-16.32,6.91-24.11c-1.32-4.56-3.97-7.5-7.06-7.5c-1.62,0-3.53,0.88-5.44,2.79c-3.38,3.38-5.88,10.44-7.35,17.93
		c-1.03,5-1.47,10.44-1.47,14.99c0,6.91,1.03,12.64,3.38,12.64C527.72,99.52,531.55,92.32,535.07,82.76z"/>
	<path class="st0" d="M665.61,115.4c-7.2,0-15.44-5.88-17.64-14.55c-1.03-3.97-1.47-8.97-1.47-14.11c0-7.5,0.73-15.29,0.73-21.17
		c0-5-0.44-9.11-2.65-9.11c-3.09,0-8.53,13.67-12.64,27.49c-3.23,11.03-5.73,22.05-5.73,26.31c0,0.59,0,1.18,0.15,1.47
		c-1.47,1.03-3.53,1.47-5.59,1.47c-5.15,0-11.17-2.79-11.76-7.94c-0.15-0.73-0.15-1.62-0.15-2.79c0-4.26,0.59-11.47,0.88-18.82
		c0.15-4.56,0.44-9.41,0.44-13.67c0-7.5-0.59-13.38-2.79-13.38c-3.23,0-8.53,13.82-12.5,27.93c-2.94,10.44-5.14,20.87-5.14,25.73
		c0,1.03,0.15,1.76,0.29,2.21c-0.88,0.73-2.21,1.03-3.82,1.03c-5.29,0-13.23-3.67-13.97-10.58c-0.15-1.03-0.15-2.65-0.15-4.56
		c0-4.7,0.29-11.61,0.74-18.82c0.44-7.35,0.73-15.44,0.73-21.9c0-5.59-0.29-10-1.03-12.5c1.47-0.73,3.23-1.03,4.85-1.03
		c4.56,0,9.11,2.5,11.32,7.06c1.18,2.65,1.62,7.5,1.62,12.35s-0.44,9.7-0.88,14.55c0.73-3.82,5.44-27.2,11.76-32.34
		c2.5-1.91,5.15-2.79,7.94-2.79c6.62,0,13.23,4.85,15.43,11.03c1.91,5.29,2.35,11.91,2.35,16.32c0,2.06,0,3.67-0.15,4.41
		c1.91-7.06,4.12-14.26,6.47-19.7c2.06-4.7,4.7-8.67,7.64-10.73c1.32-1.03,3.68-1.62,6.17-1.62s5.29,0.59,7.94,1.91
		c3.97,1.91,7.64,5.59,9.41,11.61c0.59,1.76,0.74,4.7,0.74,8.23c0,3.82-0.15,8.53-0.44,13.08c-0.29,5.15-0.44,10.29-0.44,14.7
		c0,5.73,0.29,10,1.76,10.88c0.74,0.44,1.32,0.59,2.06,0.59c2.65,0,5.44-3.09,7.5-6.76c1.91-3.38,3.38-7.06,3.67-8.67
		c2.35,0,5.44,2.5,5.44,7.06c0,1.03-0.15,2.21-0.59,3.53c-2.06,7.35-9.26,14.41-15.29,16.17
		C667.82,115.25,666.79,115.4,665.61,115.4z"/>
</g>
</svg>
